<?xml version="1.0" encoding="utf-8" standalone="no"?>
<!DOCTYPE svg PUBLIC "-//W3C//DTD SVG 1.1//EN"
  "http://www.w3.org/Graphics/SVG/1.1/DTD/svg11.dtd">
<svg xmlns:xlink="http://www.w3.org/1999/xlink" width="720.71375pt" height="495.0225pt" viewBox="0 0 720.71375 495.0225" xmlns="http://www.w3.org/2000/svg" version="1.1">
 <metadata>
  <rdf:RDF xmlns:dc="http://purl.org/dc/elements/1.1/" xmlns:cc="http://creativecommons.org/ns#" xmlns:rdf="http://www.w3.org/1999/02/22-rdf-syntax-ns#">
   <cc:Work>
    <dc:type rdf:resource="http://purl.org/dc/dcmitype/StillImage"/>
    <dc:date>2026-05-21T14:24:40.295998</dc:date>
    <dc:format>image/svg+xml</dc:format>
    <dc:creator>
     <cc:Agent>
      <dc:title>Matplotlib v3.10.8, https://matplotlib.org/</dc:title>
     </cc:Agent>
    </dc:creator>
   </cc:Work>
  </rdf:RDF>
 </metadata>
 <defs>
  <style type="text/css">*{stroke-linejoin: round; stroke-linecap: butt}</style>
 </defs>
 <g id="figure_1">
  <g id="patch_1">
   <path d="M 0 495.0225 
L 720.71375 495.0225 
L 720.71375 0 
L 0 0 
z
" style="fill: #ffffff"/>
  </g>
  <g id="axes_1">
   <g id="patch_2">
    <path d="M 70 435.4225 
L 713.51375 435.4225 
L 713.51375 7.2 
L 70 7.2 
z
" style="fill: #ffffff"/>
   </g>
   <g id="matplotlib.axis_1">
    <g id="xtick_1">
     <g id="line2d_1">
      <path d="M 99.250625 435.4225 
L 99.250625 7.2 
" clip-path="url(#pade43ba6c7)" style="fill: none; stroke: #b0b0b0; stroke-opacity: 0.3; stroke-width: 0.8; stroke-linecap: square"/>
     </g>
     <g id="line2d_2">
      <defs>
       <path id="mae3f90277f" d="M 0 0 
L 0 3.5 
" style="stroke: #000000; stroke-width: 0.8"/>
      </defs>
      <g>
       <use xlink:href="#mae3f90277f" x="99.250625" y="435.4225" style="stroke: #000000; stroke-width: 0.8"/>
      </g>
     </g>
     <g id="text_1">
      <!-- 0 -->
      <g transform="translate(94.250625 456.081875) scale(0.2 -0.2)">
       <defs>
        <path id="STIXGeneral-Regular-30" d="M 3046 2112 
Q 3046 1683 2963 1302 
Q 2880 922 2717 602 
Q 2554 282 2266 96 
Q 1978 -90 1600 -90 
Q 1210 -90 915 108 
Q 621 307 461 640 
Q 301 973 227 1350 
Q 154 1728 154 2150 
Q 154 2746 301 3222 
Q 448 3699 790 4012 
Q 1133 4326 1626 4326 
Q 2253 4326 2649 3712 
Q 3046 3098 3046 2112 
z
M 2432 2080 
Q 2432 3091 2217 3625 
Q 2003 4160 1587 4160 
Q 1190 4160 979 3622 
Q 768 3085 768 2106 
Q 768 1120 979 598 
Q 1190 77 1600 77 
Q 2003 77 2217 598 
Q 2432 1120 2432 2080 
z
" transform="scale(0.015625)"/>
       </defs>
       <use xlink:href="#STIXGeneral-Regular-30"/>
      </g>
     </g>
    </g>
    <g id="xtick_2">
     <g id="line2d_3">
      <path d="M 196.752708 435.4225 
L 196.752708 7.2 
" clip-path="url(#pade43ba6c7)" style="fill: none; stroke: #b0b0b0; stroke-opacity: 0.3; stroke-width: 0.8; stroke-linecap: square"/>
     </g>
     <g id="line2d_4">
      <g>
       <use xlink:href="#mae3f90277f" x="196.752708" y="435.4225" style="stroke: #000000; stroke-width: 0.8"/>
      </g>
     </g>
     <g id="text_2">
      <!-- 50 -->
      <g transform="translate(186.752708 456.081875) scale(0.2 -0.2)">
       <defs>
        <path id="STIXGeneral-Regular-35" d="M 2803 4358 
L 2573 3814 
Q 2534 3731 2400 3731 
L 1158 3731 
L 902 3187 
Q 1606 3053 1920 2896 
Q 2234 2739 2502 2368 
Q 2726 2061 2726 1555 
Q 2726 1094 2576 780 
Q 2426 467 2099 224 
Q 1664 -90 1011 -90 
Q 646 -90 422 19 
Q 198 128 198 307 
Q 198 550 486 550 
Q 717 550 960 352 
Q 1210 147 1414 147 
Q 1747 147 2012 480 
Q 2278 813 2278 1229 
Q 2278 1843 1850 2189 
Q 1293 2637 486 2637 
Q 410 2637 410 2688 
L 416 2720 
L 1114 4237 
L 2438 4237 
Q 2547 4237 2608 4269 
Q 2669 4301 2746 4403 
L 2803 4358 
z
" transform="scale(0.015625)"/>
       </defs>
       <use xlink:href="#STIXGeneral-Regular-35"/>
       <use xlink:href="#STIXGeneral-Regular-30" transform="translate(49.999985 0)"/>
      </g>
     </g>
    </g>
    <g id="xtick_3">
     <g id="line2d_5">
      <path d="M 294.254792 435.4225 
L 294.254792 7.2 
" clip-path="url(#pade43ba6c7)" style="fill: none; stroke: #b0b0b0; stroke-opacity: 0.3; stroke-width: 0.8; stroke-linecap: square"/>
     </g>
     <g id="line2d_6">
      <g>
       <use xlink:href="#mae3f90277f" x="294.254792" y="435.4225" style="stroke: #000000; stroke-width: 0.8"/>
      </g>
     </g>
     <g id="text_3">
      <!-- 100 -->
      <g transform="translate(279.254792 456.081875) scale(0.2 -0.2)">
       <defs>
        <path id="STIXGeneral-Regular-31" d="M 2522 0 
L 755 0 
L 755 96 
Q 1107 115 1235 227 
Q 1363 339 1363 608 
L 1363 3482 
Q 1363 3795 1171 3795 
Q 1082 3795 883 3718 
L 710 3654 
L 710 3744 
L 1856 4326 
L 1914 4307 
L 1914 486 
Q 1914 275 2042 185 
Q 2170 96 2522 96 
L 2522 0 
z
" transform="scale(0.015625)"/>
       </defs>
       <use xlink:href="#STIXGeneral-Regular-31"/>
       <use xlink:href="#STIXGeneral-Regular-30" transform="translate(49.999985 0)"/>
       <use xlink:href="#STIXGeneral-Regular-30" transform="translate(99.999969 0)"/>
      </g>
     </g>
    </g>
    <g id="xtick_4">
     <g id="line2d_7">
      <path d="M 391.756875 435.4225 
L 391.756875 7.2 
" clip-path="url(#pade43ba6c7)" style="fill: none; stroke: #b0b0b0; stroke-opacity: 0.3; stroke-width: 0.8; stroke-linecap: square"/>
     </g>
     <g id="line2d_8">
      <g>
       <use xlink:href="#mae3f90277f" x="391.756875" y="435.4225" style="stroke: #000000; stroke-width: 0.8"/>
      </g>
     </g>
     <g id="text_4">
      <!-- 150 -->
      <g transform="translate(376.756875 456.081875) scale(0.2 -0.2)">
       <use xlink:href="#STIXGeneral-Regular-31"/>
       <use xlink:href="#STIXGeneral-Regular-35" transform="translate(49.999985 0)"/>
       <use xlink:href="#STIXGeneral-Regular-30" transform="translate(99.999969 0)"/>
      </g>
     </g>
    </g>
    <g id="xtick_5">
     <g id="line2d_9">
      <path d="M 489.258958 435.4225 
L 489.258958 7.2 
" clip-path="url(#pade43ba6c7)" style="fill: none; stroke: #b0b0b0; stroke-opacity: 0.3; stroke-width: 0.8; stroke-linecap: square"/>
     </g>
     <g id="line2d_10">
      <g>
       <use xlink:href="#mae3f90277f" x="489.258958" y="435.4225" style="stroke: #000000; stroke-width: 0.8"/>
      </g>
     </g>
     <g id="text_5">
      <!-- 200 -->
      <g transform="translate(474.258958 456.081875) scale(0.2 -0.2)">
       <defs>
        <path id="STIXGeneral-Regular-32" d="M 3034 877 
L 2688 0 
L 186 0 
L 186 77 
L 1325 1286 
Q 1773 1754 1965 2144 
Q 2157 2534 2157 2950 
Q 2157 3379 1920 3616 
Q 1683 3853 1267 3853 
Q 922 3853 720 3673 
Q 518 3494 326 3021 
L 192 3053 
Q 301 3648 630 3987 
Q 960 4326 1523 4326 
Q 2054 4326 2380 4006 
Q 2707 3686 2707 3200 
Q 2707 2477 1888 1613 
L 832 486 
L 2330 486 
Q 2541 486 2665 569 
Q 2790 653 2944 915 
L 3034 877 
z
" transform="scale(0.015625)"/>
       </defs>
       <use xlink:href="#STIXGeneral-Regular-32"/>
       <use xlink:href="#STIXGeneral-Regular-30" transform="translate(49.999985 0)"/>
       <use xlink:href="#STIXGeneral-Regular-30" transform="translate(99.999969 0)"/>
      </g>
     </g>
    </g>
    <g id="xtick_6">
     <g id="line2d_11">
      <path d="M 586.761042 435.4225 
L 586.761042 7.2 
" clip-path="url(#pade43ba6c7)" style="fill: none; stroke: #b0b0b0; stroke-opacity: 0.3; stroke-width: 0.8; stroke-linecap: square"/>
     </g>
     <g id="line2d_12">
      <g>
       <use xlink:href="#mae3f90277f" x="586.761042" y="435.4225" style="stroke: #000000; stroke-width: 0.8"/>
      </g>
     </g>
     <g id="text_6">
      <!-- 250 -->
      <g transform="translate(571.761042 456.081875) scale(0.2 -0.2)">
       <use xlink:href="#STIXGeneral-Regular-32"/>
       <use xlink:href="#STIXGeneral-Regular-35" transform="translate(49.999985 0)"/>
       <use xlink:href="#STIXGeneral-Regular-30" transform="translate(99.999969 0)"/>
      </g>
     </g>
    </g>
    <g id="xtick_7">
     <g id="line2d_13">
      <path d="M 684.263125 435.4225 
L 684.263125 7.2 
" clip-path="url(#pade43ba6c7)" style="fill: none; stroke: #b0b0b0; stroke-opacity: 0.3; stroke-width: 0.8; stroke-linecap: square"/>
     </g>
     <g id="line2d_14">
      <g>
       <use xlink:href="#mae3f90277f" x="684.263125" y="435.4225" style="stroke: #000000; stroke-width: 0.8"/>
      </g>
     </g>
     <g id="text_7">
      <!-- 300 -->
      <g transform="translate(669.263125 456.081875) scale(0.2 -0.2)">
       <defs>
        <path id="STIXGeneral-Regular-33" d="M 390 3264 
L 288 3290 
Q 435 3770 748 4048 
Q 1062 4326 1542 4326 
Q 1990 4326 2265 4083 
Q 2541 3840 2541 3450 
Q 2541 2925 1946 2566 
Q 2298 2413 2477 2227 
Q 2758 1914 2758 1402 
Q 2758 890 2464 506 
Q 2246 211 1840 60 
Q 1434 -90 979 -90 
Q 262 -90 262 275 
Q 262 378 339 442 
Q 416 506 525 506 
Q 685 506 915 339 
Q 1197 141 1466 141 
Q 1818 141 2058 425 
Q 2298 710 2298 1120 
Q 2298 1856 1632 2048 
Q 1434 2112 979 2112 
L 979 2202 
Q 1338 2323 1517 2432 
Q 2035 2726 2035 3290 
Q 2035 3610 1852 3776 
Q 1670 3942 1344 3942 
Q 768 3942 390 3264 
z
" transform="scale(0.015625)"/>
       </defs>
       <use xlink:href="#STIXGeneral-Regular-33"/>
       <use xlink:href="#STIXGeneral-Regular-30" transform="translate(49.999985 0)"/>
       <use xlink:href="#STIXGeneral-Regular-30" transform="translate(99.999969 0)"/>
      </g>
     </g>
    </g>
    <g id="text_8">
     <!-- Время [дни] -->
     <g transform="translate(325.0425 482.179687) scale(0.26 -0.26)">
      <defs>
       <path id="STIXGeneral-Regular-412" d="M 2714 2298 
L 2714 2291 
Q 3194 2214 3494 1939 
Q 3808 1658 3808 1203 
Q 3808 666 3389 333 
Q 2970 0 2278 0 
L 122 0 
L 122 122 
Q 499 134 617 246 
Q 736 358 736 723 
L 736 3520 
Q 736 3891 627 3990 
Q 518 4090 122 4115 
L 122 4237 
L 1914 4237 
Q 3590 4237 3590 3232 
Q 3590 2797 3328 2566 
Q 3142 2406 2714 2298 
z
M 1389 2406 
L 1978 2406 
Q 2938 2406 2938 3200 
Q 2938 3994 1805 3994 
L 1542 3994 
Q 1389 3994 1389 3789 
L 1389 2406 
z
M 1389 2150 
L 1389 531 
Q 1389 371 1475 307 
Q 1562 243 1786 243 
Q 2221 243 2425 291 
Q 2630 339 2829 518 
Q 3072 730 3072 1210 
Q 3072 1696 2771 1894 
Q 2502 2074 2259 2112 
Q 2016 2150 1389 2150 
z
" transform="scale(0.015625)"/>
       <path id="STIXGeneral-Regular-440" d="M 973 2931 
L 973 2438 
Q 1376 2944 1894 2944 
Q 2362 2944 2662 2560 
Q 2963 2176 2963 1581 
Q 2963 877 2595 406 
Q 2227 -64 1658 -64 
Q 1274 -64 973 211 
L 973 -806 
Q 973 -1107 1075 -1196 
Q 1178 -1286 1536 -1293 
L 1536 -1389 
L -13 -1389 
L -13 -1293 
Q 269 -1267 352 -1184 
Q 435 -1101 435 -851 
L 435 2157 
Q 435 2381 384 2451 
Q 333 2522 173 2522 
Q 70 2522 13 2515 
L 13 2618 
Q 461 2752 934 2944 
L 973 2931 
z
M 973 2138 
L 973 563 
Q 973 416 1193 272 
Q 1414 128 1638 128 
Q 1984 128 2198 461 
Q 2413 794 2413 1325 
Q 2413 1888 2198 2224 
Q 1984 2560 1626 2560 
Q 1402 2560 1187 2419 
Q 973 2278 973 2138 
z
" transform="scale(0.015625)"/>
       <path id="STIXGeneral-Regular-435" d="M 2694 1050 
L 2797 1005 
Q 2413 -64 1459 -64 
Q 896 -64 569 329 
Q 243 723 243 1389 
Q 243 2074 608 2509 
Q 973 2944 1568 2944 
Q 2144 2944 2458 2502 
Q 2637 2246 2675 1760 
L 704 1760 
Q 704 1190 944 793 
Q 1184 397 1683 397 
Q 2003 397 2230 544 
Q 2458 691 2694 1050 
z
M 717 1939 
L 2022 1939 
Q 1965 2355 1830 2544 
Q 1696 2733 1395 2733 
Q 1133 2733 950 2518 
Q 768 2304 717 1939 
z
" transform="scale(0.015625)"/>
       <path id="STIXGeneral-Regular-43c" d="M 3802 2880 
L 3802 2784 
Q 3546 2765 3475 2691 
Q 3405 2618 3405 2342 
L 3405 506 
Q 3405 256 3475 189 
Q 3546 122 3795 96 
L 3795 0 
L 2432 0 
L 2432 96 
Q 2694 115 2780 188 
Q 2867 262 2867 474 
L 2867 2227 
L 2861 2227 
L 1888 0 
L 1830 0 
L 762 2202 
L 755 2202 
L 755 461 
Q 755 262 841 182 
Q 928 102 1178 96 
L 1178 0 
L 147 0 
L 147 96 
Q 410 115 477 176 
Q 544 237 544 506 
L 544 2342 
Q 544 2598 470 2678 
Q 397 2758 154 2784 
L 154 2880 
L 1011 2880 
L 2016 794 
L 2931 2880 
L 3802 2880 
z
" transform="scale(0.015625)"/>
       <path id="STIXGeneral-Regular-44f" d="M 2867 2880 
L 2867 2784 
Q 2618 2765 2544 2691 
Q 2470 2618 2470 2342 
L 2470 506 
Q 2470 256 2540 195 
Q 2611 134 2861 109 
L 2861 0 
L 1568 0 
L 1568 96 
Q 1805 109 1869 176 
Q 1933 243 1933 486 
L 1933 1318 
L 1811 1318 
L 819 0 
L 26 0 
L 26 96 
Q 243 115 474 397 
L 1235 1338 
Q 838 1389 585 1600 
Q 333 1811 333 2144 
Q 333 2374 422 2528 
Q 512 2682 694 2755 
Q 877 2829 1072 2854 
Q 1267 2880 1549 2880 
L 2867 2880 
z
M 1933 1498 
L 1933 2502 
Q 1933 2624 1894 2662 
Q 1856 2701 1741 2701 
Q 1370 2701 1142 2576 
Q 915 2451 915 2106 
Q 915 1811 1113 1654 
Q 1312 1498 1677 1498 
L 1933 1498 
z
" transform="scale(0.015625)"/>
       <path id="STIXGeneral-Regular-20" transform="scale(0.015625)"/>
       <path id="STIXGeneral-Regular-5b" d="M 1914 -998 
L 563 -998 
L 563 4237 
L 1914 4237 
L 1914 4077 
L 1382 4077 
Q 1216 4077 1133 4006 
Q 1050 3936 1050 3770 
L 1050 -493 
Q 1050 -838 1382 -838 
L 1914 -838 
L 1914 -998 
z
" transform="scale(0.015625)"/>
       <path id="STIXGeneral-Regular-434" d="M 2810 2880 
L 2810 2784 
Q 2554 2765 2483 2691 
Q 2413 2618 2413 2342 
L 2413 525 
Q 2413 237 2477 176 
Q 2541 115 2803 96 
L 2803 -877 
L 2688 -877 
Q 2534 -326 2400 -163 
Q 2266 0 2061 0 
L 870 0 
Q 672 0 512 -169 
Q 352 -339 205 -877 
L 90 -877 
L 90 96 
Q 467 96 595 368 
Q 723 640 723 1274 
L 723 2342 
Q 723 2586 624 2672 
Q 525 2758 269 2784 
L 269 2880 
L 2810 2880 
z
M 1875 518 
L 1875 2426 
Q 1875 2605 1830 2653 
Q 1786 2701 1619 2701 
L 1171 2701 
Q 1043 2701 988 2646 
Q 934 2592 934 2432 
L 934 1146 
Q 934 538 742 179 
L 1606 179 
Q 1875 179 1875 518 
z
" transform="scale(0.015625)"/>
       <path id="STIXGeneral-Regular-43d" d="M 3213 2880 
L 3213 2784 
Q 2957 2765 2886 2691 
Q 2816 2618 2816 2342 
L 2816 506 
Q 2816 256 2886 189 
Q 2957 122 3206 96 
L 3206 0 
L 1882 0 
L 1882 96 
Q 2125 115 2201 188 
Q 2278 262 2278 474 
L 2278 1376 
L 1082 1376 
L 1082 461 
Q 1082 262 1158 188 
Q 1235 115 1478 96 
L 1478 0 
L 147 0 
L 147 96 
Q 410 115 477 176 
Q 544 237 544 506 
L 544 2342 
Q 544 2598 470 2678 
Q 397 2758 154 2784 
L 154 2880 
L 1478 2880 
L 1478 2784 
Q 1222 2758 1152 2688 
Q 1082 2618 1082 2413 
L 1082 1587 
L 2278 1587 
L 2278 2419 
Q 2278 2624 2201 2694 
Q 2125 2765 1882 2784 
L 1882 2880 
L 3213 2880 
z
" transform="scale(0.015625)"/>
       <path id="STIXGeneral-Regular-438" d="M 3213 2880 
L 3213 2784 
Q 2957 2765 2886 2691 
Q 2816 2618 2816 2342 
L 2816 506 
Q 2816 256 2886 189 
Q 2957 122 3206 96 
L 3206 0 
L 1882 0 
L 1882 96 
Q 2125 115 2201 188 
Q 2278 262 2278 474 
L 2278 2112 
L 1082 461 
Q 1082 262 1158 188 
Q 1235 115 1478 96 
L 1478 0 
L 147 0 
L 147 96 
Q 410 115 477 176 
Q 544 237 544 506 
L 544 2342 
Q 544 2598 470 2678 
Q 397 2758 154 2784 
L 154 2880 
L 1478 2880 
L 1478 2784 
Q 1222 2758 1152 2688 
Q 1082 2618 1082 2413 
L 1082 774 
L 2278 2419 
Q 2278 2624 2201 2694 
Q 2125 2765 1882 2784 
L 1882 2880 
L 3213 2880 
z
" transform="scale(0.015625)"/>
       <path id="STIXGeneral-Regular-5d" d="M 1568 -998 
L 218 -998 
L 218 -838 
L 781 -838 
Q 947 -838 1014 -768 
Q 1082 -698 1082 -544 
L 1082 3731 
Q 1082 4077 755 4077 
L 218 4077 
L 218 4237 
L 1568 4237 
L 1568 -998 
z
" transform="scale(0.015625)"/>
      </defs>
      <use xlink:href="#STIXGeneral-Regular-412"/>
      <use xlink:href="#STIXGeneral-Regular-440" transform="translate(65.099991 0)"/>
      <use xlink:href="#STIXGeneral-Regular-435" transform="translate(114.999985 0)"/>
      <use xlink:href="#STIXGeneral-Regular-43c" transform="translate(161.599976 0)"/>
      <use xlink:href="#STIXGeneral-Regular-44f" transform="translate(223.299973 0)"/>
      <use xlink:href="#STIXGeneral-Regular-20" transform="translate(270.399963 0)"/>
      <use xlink:href="#STIXGeneral-Regular-5b" transform="translate(295.399948 0)"/>
      <use xlink:href="#STIXGeneral-Regular-434" transform="translate(328.699936 0)"/>
      <use xlink:href="#STIXGeneral-Regular-43d" transform="translate(374.899933 0)"/>
      <use xlink:href="#STIXGeneral-Regular-438" transform="translate(427.399918 0)"/>
      <use xlink:href="#STIXGeneral-Regular-5d" transform="translate(479.899902 0)"/>
     </g>
    </g>
   </g>
   <g id="matplotlib.axis_2">
    <g id="ytick_1">
     <g id="line2d_15">
      <path d="M 70 374.04279 
L 713.51375 374.04279 
" clip-path="url(#pade43ba6c7)" style="fill: none; stroke: #b0b0b0; stroke-opacity: 0.3; stroke-width: 0.8; stroke-linecap: square"/>
     </g>
     <g id="line2d_16">
      <defs>
       <path id="m7be8e40ffd" d="M 0 0 
L -3.5 0 
" style="stroke: #000000; stroke-width: 0.8"/>
      </defs>
      <g>
       <use xlink:href="#m7be8e40ffd" x="70" y="374.04279" style="stroke: #000000; stroke-width: 0.8"/>
      </g>
     </g>
     <g id="text_9">
      <!-- $\mathdefault{10^{4}}$ -->
      <g transform="translate(34.6 380.872477) scale(0.2 -0.2)">
       <defs>
        <path id="STIXGeneral-Regular-34" d="M 3027 1069 
L 2368 1069 
L 2368 0 
L 1869 0 
L 1869 1069 
L 77 1069 
L 77 1478 
L 2086 4326 
L 2368 4326 
L 2368 1478 
L 3027 1478 
L 3027 1069 
z
M 1869 1478 
L 1869 3674 
L 333 1478 
L 1869 1478 
z
" transform="scale(0.015625)"/>
       </defs>
       <use xlink:href="#STIXGeneral-Regular-31" transform="translate(0 0.684375)"/>
       <use xlink:href="#STIXGeneral-Regular-30" transform="translate(49.999985 0.684375)"/>
       <use xlink:href="#STIXGeneral-Regular-34" transform="translate(101.574969 36.684375) scale(0.7)"/>
      </g>
     </g>
    </g>
    <g id="ytick_2">
     <g id="line2d_17">
      <path d="M 70 289.298892 
L 713.51375 289.298892 
" clip-path="url(#pade43ba6c7)" style="fill: none; stroke: #b0b0b0; stroke-opacity: 0.3; stroke-width: 0.8; stroke-linecap: square"/>
     </g>
     <g id="line2d_18">
      <g>
       <use xlink:href="#m7be8e40ffd" x="70" y="289.298892" style="stroke: #000000; stroke-width: 0.8"/>
      </g>
     </g>
     <g id="text_10">
      <!-- $\mathdefault{10^{5}}$ -->
      <g transform="translate(34.6 296.12858) scale(0.2 -0.2)">
       <use xlink:href="#STIXGeneral-Regular-31" transform="translate(0 0.842187)"/>
       <use xlink:href="#STIXGeneral-Regular-30" transform="translate(49.999985 0.842187)"/>
       <use xlink:href="#STIXGeneral-Regular-35" transform="translate(101.574969 36.842187) scale(0.7)"/>
      </g>
     </g>
    </g>
    <g id="ytick_3">
     <g id="line2d_19">
      <path d="M 70 204.554994 
L 713.51375 204.554994 
" clip-path="url(#pade43ba6c7)" style="fill: none; stroke: #b0b0b0; stroke-opacity: 0.3; stroke-width: 0.8; stroke-linecap: square"/>
     </g>
     <g id="line2d_20">
      <g>
       <use xlink:href="#m7be8e40ffd" x="70" y="204.554994" style="stroke: #000000; stroke-width: 0.8"/>
      </g>
     </g>
     <g id="text_11">
      <!-- $\mathdefault{10^{6}}$ -->
      <g transform="translate(34.6 211.384682) scale(0.2 -0.2)">
       <defs>
        <path id="STIXGeneral-Regular-36" d="M 2854 4378 
L 2867 4275 
Q 2112 4154 1606 3664 
Q 1101 3174 973 2451 
Q 1344 2739 1786 2739 
Q 2349 2739 2672 2380 
Q 2995 2022 2995 1402 
Q 2995 774 2669 378 
Q 2291 -90 1651 -90 
Q 870 -90 518 557 
Q 218 1107 218 1786 
Q 218 2835 915 3552 
Q 1312 3962 1731 4131 
Q 2150 4301 2854 4378 
z
M 2419 1203 
Q 2419 2445 1555 2445 
Q 1235 2445 1024 2275 
Q 813 2106 813 1702 
Q 813 954 1046 522 
Q 1280 90 1722 90 
Q 2061 90 2240 394 
Q 2419 698 2419 1203 
z
" transform="scale(0.015625)"/>
       </defs>
       <use xlink:href="#STIXGeneral-Regular-31" transform="translate(0 0.115625)"/>
       <use xlink:href="#STIXGeneral-Regular-30" transform="translate(49.999985 0.115625)"/>
       <use xlink:href="#STIXGeneral-Regular-36" transform="translate(101.574969 36.115625) scale(0.7)"/>
      </g>
     </g>
    </g>
    <g id="ytick_4">
     <g id="line2d_21">
      <path d="M 70 119.811097 
L 713.51375 119.811097 
" clip-path="url(#pade43ba6c7)" style="fill: none; stroke: #b0b0b0; stroke-opacity: 0.3; stroke-width: 0.8; stroke-linecap: square"/>
     </g>
     <g id="line2d_22">
      <g>
       <use xlink:href="#m7be8e40ffd" x="70" y="119.811097" style="stroke: #000000; stroke-width: 0.8"/>
      </g>
     </g>
     <g id="text_12">
      <!-- $\mathdefault{10^{7}}$ -->
      <g transform="translate(34.6 126.640784) scale(0.2 -0.2)">
       <defs>
        <path id="STIXGeneral-Regular-37" d="M 2874 4134 
L 1517 -51 
L 1101 -51 
L 2368 3763 
L 992 3763 
Q 717 3763 582 3667 
Q 448 3571 243 3238 
L 128 3296 
L 512 4237 
L 2874 4237 
L 2874 4134 
z
" transform="scale(0.015625)"/>
       </defs>
       <use xlink:href="#STIXGeneral-Regular-31" transform="translate(0 0.657813)"/>
       <use xlink:href="#STIXGeneral-Regular-30" transform="translate(49.999985 0.657813)"/>
       <use xlink:href="#STIXGeneral-Regular-37" transform="translate(101.574969 36.657813) scale(0.7)"/>
      </g>
     </g>
    </g>
    <g id="ytick_5">
     <g id="line2d_23">
      <path d="M 70 35.067199 
L 713.51375 35.067199 
" clip-path="url(#pade43ba6c7)" style="fill: none; stroke: #b0b0b0; stroke-opacity: 0.3; stroke-width: 0.8; stroke-linecap: square"/>
     </g>
     <g id="line2d_24">
      <g>
       <use xlink:href="#m7be8e40ffd" x="70" y="35.067199" style="stroke: #000000; stroke-width: 0.8"/>
      </g>
     </g>
     <g id="text_13">
      <!-- $\mathdefault{10^{8}}$ -->
      <g transform="translate(34.6 41.896887) scale(0.2 -0.2)">
       <defs>
        <path id="STIXGeneral-Regular-38" d="M 2848 992 
Q 2848 499 2505 204 
Q 2163 -90 1587 -90 
Q 1050 -90 704 204 
Q 358 499 358 954 
Q 358 1293 524 1533 
Q 691 1773 1190 2125 
Q 710 2522 553 2765 
Q 397 3008 397 3328 
Q 397 3782 745 4054 
Q 1094 4326 1638 4326 
Q 2106 4326 2410 4060 
Q 2714 3795 2714 3411 
Q 2714 3059 2531 2848 
Q 2349 2637 1856 2374 
Q 2432 1990 2640 1689 
Q 2848 1389 2848 992 
z
M 2272 3411 
Q 2272 3744 2086 3945 
Q 1901 4147 1574 4147 
Q 1248 4147 1059 3977 
Q 870 3808 870 3513 
Q 870 3219 1059 2979 
Q 1248 2739 1670 2490 
Q 1997 2682 2134 2896 
Q 2272 3110 2272 3411 
z
M 1734 1741 
L 1357 1997 
Q 1075 1766 960 1545 
Q 845 1325 845 1011 
Q 845 576 1065 333 
Q 1286 90 1658 90 
Q 1971 90 2166 285 
Q 2362 480 2362 794 
Q 2362 1082 2214 1299 
Q 2067 1517 1734 1741 
z
" transform="scale(0.015625)"/>
       </defs>
       <use xlink:href="#STIXGeneral-Regular-31" transform="translate(0 0.684375)"/>
       <use xlink:href="#STIXGeneral-Regular-30" transform="translate(49.999985 0.684375)"/>
       <use xlink:href="#STIXGeneral-Regular-38" transform="translate(101.574969 36.684375) scale(0.7)"/>
      </g>
     </g>
    </g>
    <g id="ytick_6">
     <g id="line2d_25">
      <path d="M 70 433.276232 
L 713.51375 433.276232 
" clip-path="url(#pade43ba6c7)" style="fill: none; stroke: #b0b0b0; stroke-opacity: 0.3; stroke-width: 0.8; stroke-linecap: square"/>
     </g>
     <g id="line2d_26">
      <defs>
       <path id="m43bb67e645" d="M 0 0 
L -2 0 
" style="stroke: #000000; stroke-width: 0.6"/>
      </defs>
      <g>
       <use xlink:href="#m43bb67e645" x="70" y="433.276232" style="stroke: #000000; stroke-width: 0.6"/>
      </g>
     </g>
    </g>
    <g id="ytick_7">
     <g id="line2d_27">
      <path d="M 70 418.353573 
L 713.51375 418.353573 
" clip-path="url(#pade43ba6c7)" style="fill: none; stroke: #b0b0b0; stroke-opacity: 0.3; stroke-width: 0.8; stroke-linecap: square"/>
     </g>
     <g id="line2d_28">
      <g>
       <use xlink:href="#m43bb67e645" x="70" y="418.353573" style="stroke: #000000; stroke-width: 0.6"/>
      </g>
     </g>
    </g>
    <g id="ytick_8">
     <g id="line2d_29">
      <path d="M 70 407.765777 
L 713.51375 407.765777 
" clip-path="url(#pade43ba6c7)" style="fill: none; stroke: #b0b0b0; stroke-opacity: 0.3; stroke-width: 0.8; stroke-linecap: square"/>
     </g>
     <g id="line2d_30">
      <g>
       <use xlink:href="#m43bb67e645" x="70" y="407.765777" style="stroke: #000000; stroke-width: 0.6"/>
      </g>
     </g>
    </g>
    <g id="ytick_9">
     <g id="line2d_31">
      <path d="M 70 399.553245 
L 713.51375 399.553245 
" clip-path="url(#pade43ba6c7)" style="fill: none; stroke: #b0b0b0; stroke-opacity: 0.3; stroke-width: 0.8; stroke-linecap: square"/>
     </g>
     <g id="line2d_32">
      <g>
       <use xlink:href="#m43bb67e645" x="70" y="399.553245" style="stroke: #000000; stroke-width: 0.6"/>
      </g>
     </g>
    </g>
    <g id="ytick_10">
     <g id="line2d_33">
      <path d="M 70 392.843118 
L 713.51375 392.843118 
" clip-path="url(#pade43ba6c7)" style="fill: none; stroke: #b0b0b0; stroke-opacity: 0.3; stroke-width: 0.8; stroke-linecap: square"/>
     </g>
     <g id="line2d_34">
      <g>
       <use xlink:href="#m43bb67e645" x="70" y="392.843118" style="stroke: #000000; stroke-width: 0.6"/>
      </g>
     </g>
    </g>
    <g id="ytick_11">
     <g id="line2d_35">
      <path d="M 70 387.169786 
L 713.51375 387.169786 
" clip-path="url(#pade43ba6c7)" style="fill: none; stroke: #b0b0b0; stroke-opacity: 0.3; stroke-width: 0.8; stroke-linecap: square"/>
     </g>
     <g id="line2d_36">
      <g>
       <use xlink:href="#m43bb67e645" x="70" y="387.169786" style="stroke: #000000; stroke-width: 0.6"/>
      </g>
     </g>
    </g>
    <g id="ytick_12">
     <g id="line2d_37">
      <path d="M 70 382.255322 
L 713.51375 382.255322 
" clip-path="url(#pade43ba6c7)" style="fill: none; stroke: #b0b0b0; stroke-opacity: 0.3; stroke-width: 0.8; stroke-linecap: square"/>
     </g>
     <g id="line2d_38">
      <g>
       <use xlink:href="#m43bb67e645" x="70" y="382.255322" style="stroke: #000000; stroke-width: 0.6"/>
      </g>
     </g>
    </g>
    <g id="ytick_13">
     <g id="line2d_39">
      <path d="M 70 377.920458 
L 713.51375 377.920458 
" clip-path="url(#pade43ba6c7)" style="fill: none; stroke: #b0b0b0; stroke-opacity: 0.3; stroke-width: 0.8; stroke-linecap: square"/>
     </g>
     <g id="line2d_40">
      <g>
       <use xlink:href="#m43bb67e645" x="70" y="377.920458" style="stroke: #000000; stroke-width: 0.6"/>
      </g>
     </g>
    </g>
    <g id="ytick_14">
     <g id="line2d_41">
      <path d="M 70 348.532335 
L 713.51375 348.532335 
" clip-path="url(#pade43ba6c7)" style="fill: none; stroke: #b0b0b0; stroke-opacity: 0.3; stroke-width: 0.8; stroke-linecap: square"/>
     </g>
     <g id="line2d_42">
      <g>
       <use xlink:href="#m43bb67e645" x="70" y="348.532335" style="stroke: #000000; stroke-width: 0.6"/>
      </g>
     </g>
    </g>
    <g id="ytick_15">
     <g id="line2d_43">
      <path d="M 70 333.609675 
L 713.51375 333.609675 
" clip-path="url(#pade43ba6c7)" style="fill: none; stroke: #b0b0b0; stroke-opacity: 0.3; stroke-width: 0.8; stroke-linecap: square"/>
     </g>
     <g id="line2d_44">
      <g>
       <use xlink:href="#m43bb67e645" x="70" y="333.609675" style="stroke: #000000; stroke-width: 0.6"/>
      </g>
     </g>
    </g>
    <g id="ytick_16">
     <g id="line2d_45">
      <path d="M 70 323.021879 
L 713.51375 323.021879 
" clip-path="url(#pade43ba6c7)" style="fill: none; stroke: #b0b0b0; stroke-opacity: 0.3; stroke-width: 0.8; stroke-linecap: square"/>
     </g>
     <g id="line2d_46">
      <g>
       <use xlink:href="#m43bb67e645" x="70" y="323.021879" style="stroke: #000000; stroke-width: 0.6"/>
      </g>
     </g>
    </g>
    <g id="ytick_17">
     <g id="line2d_47">
      <path d="M 70 314.809347 
L 713.51375 314.809347 
" clip-path="url(#pade43ba6c7)" style="fill: none; stroke: #b0b0b0; stroke-opacity: 0.3; stroke-width: 0.8; stroke-linecap: square"/>
     </g>
     <g id="line2d_48">
      <g>
       <use xlink:href="#m43bb67e645" x="70" y="314.809347" style="stroke: #000000; stroke-width: 0.6"/>
      </g>
     </g>
    </g>
    <g id="ytick_18">
     <g id="line2d_49">
      <path d="M 70 308.09922 
L 713.51375 308.09922 
" clip-path="url(#pade43ba6c7)" style="fill: none; stroke: #b0b0b0; stroke-opacity: 0.3; stroke-width: 0.8; stroke-linecap: square"/>
     </g>
     <g id="line2d_50">
      <g>
       <use xlink:href="#m43bb67e645" x="70" y="308.09922" style="stroke: #000000; stroke-width: 0.6"/>
      </g>
     </g>
    </g>
    <g id="ytick_19">
     <g id="line2d_51">
      <path d="M 70 302.425888 
L 713.51375 302.425888 
" clip-path="url(#pade43ba6c7)" style="fill: none; stroke: #b0b0b0; stroke-opacity: 0.3; stroke-width: 0.8; stroke-linecap: square"/>
     </g>
     <g id="line2d_52">
      <g>
       <use xlink:href="#m43bb67e645" x="70" y="302.425888" style="stroke: #000000; stroke-width: 0.6"/>
      </g>
     </g>
    </g>
    <g id="ytick_20">
     <g id="line2d_53">
      <path d="M 70 297.511424 
L 713.51375 297.511424 
" clip-path="url(#pade43ba6c7)" style="fill: none; stroke: #b0b0b0; stroke-opacity: 0.3; stroke-width: 0.8; stroke-linecap: square"/>
     </g>
     <g id="line2d_54">
      <g>
       <use xlink:href="#m43bb67e645" x="70" y="297.511424" style="stroke: #000000; stroke-width: 0.6"/>
      </g>
     </g>
    </g>
    <g id="ytick_21">
     <g id="line2d_55">
      <path d="M 70 293.17656 
L 713.51375 293.17656 
" clip-path="url(#pade43ba6c7)" style="fill: none; stroke: #b0b0b0; stroke-opacity: 0.3; stroke-width: 0.8; stroke-linecap: square"/>
     </g>
     <g id="line2d_56">
      <g>
       <use xlink:href="#m43bb67e645" x="70" y="293.17656" style="stroke: #000000; stroke-width: 0.6"/>
      </g>
     </g>
    </g>
    <g id="ytick_22">
     <g id="line2d_57">
      <path d="M 70 263.788437 
L 713.51375 263.788437 
" clip-path="url(#pade43ba6c7)" style="fill: none; stroke: #b0b0b0; stroke-opacity: 0.3; stroke-width: 0.8; stroke-linecap: square"/>
     </g>
     <g id="line2d_58">
      <g>
       <use xlink:href="#m43bb67e645" x="70" y="263.788437" style="stroke: #000000; stroke-width: 0.6"/>
      </g>
     </g>
    </g>
    <g id="ytick_23">
     <g id="line2d_59">
      <path d="M 70 248.865777 
L 713.51375 248.865777 
" clip-path="url(#pade43ba6c7)" style="fill: none; stroke: #b0b0b0; stroke-opacity: 0.3; stroke-width: 0.8; stroke-linecap: square"/>
     </g>
     <g id="line2d_60">
      <g>
       <use xlink:href="#m43bb67e645" x="70" y="248.865777" style="stroke: #000000; stroke-width: 0.6"/>
      </g>
     </g>
    </g>
    <g id="ytick_24">
     <g id="line2d_61">
      <path d="M 70 238.277982 
L 713.51375 238.277982 
" clip-path="url(#pade43ba6c7)" style="fill: none; stroke: #b0b0b0; stroke-opacity: 0.3; stroke-width: 0.8; stroke-linecap: square"/>
     </g>
     <g id="line2d_62">
      <g>
       <use xlink:href="#m43bb67e645" x="70" y="238.277982" style="stroke: #000000; stroke-width: 0.6"/>
      </g>
     </g>
    </g>
    <g id="ytick_25">
     <g id="line2d_63">
      <path d="M 70 230.06545 
L 713.51375 230.06545 
" clip-path="url(#pade43ba6c7)" style="fill: none; stroke: #b0b0b0; stroke-opacity: 0.3; stroke-width: 0.8; stroke-linecap: square"/>
     </g>
     <g id="line2d_64">
      <g>
       <use xlink:href="#m43bb67e645" x="70" y="230.06545" style="stroke: #000000; stroke-width: 0.6"/>
      </g>
     </g>
    </g>
    <g id="ytick_26">
     <g id="line2d_65">
      <path d="M 70 223.355322 
L 713.51375 223.355322 
" clip-path="url(#pade43ba6c7)" style="fill: none; stroke: #b0b0b0; stroke-opacity: 0.3; stroke-width: 0.8; stroke-linecap: square"/>
     </g>
     <g id="line2d_66">
      <g>
       <use xlink:href="#m43bb67e645" x="70" y="223.355322" style="stroke: #000000; stroke-width: 0.6"/>
      </g>
     </g>
    </g>
    <g id="ytick_27">
     <g id="line2d_67">
      <path d="M 70 217.68199 
L 713.51375 217.68199 
" clip-path="url(#pade43ba6c7)" style="fill: none; stroke: #b0b0b0; stroke-opacity: 0.3; stroke-width: 0.8; stroke-linecap: square"/>
     </g>
     <g id="line2d_68">
      <g>
       <use xlink:href="#m43bb67e645" x="70" y="217.68199" style="stroke: #000000; stroke-width: 0.6"/>
      </g>
     </g>
    </g>
    <g id="ytick_28">
     <g id="line2d_69">
      <path d="M 70 212.767527 
L 713.51375 212.767527 
" clip-path="url(#pade43ba6c7)" style="fill: none; stroke: #b0b0b0; stroke-opacity: 0.3; stroke-width: 0.8; stroke-linecap: square"/>
     </g>
     <g id="line2d_70">
      <g>
       <use xlink:href="#m43bb67e645" x="70" y="212.767527" style="stroke: #000000; stroke-width: 0.6"/>
      </g>
     </g>
    </g>
    <g id="ytick_29">
     <g id="line2d_71">
      <path d="M 70 208.432663 
L 713.51375 208.432663 
" clip-path="url(#pade43ba6c7)" style="fill: none; stroke: #b0b0b0; stroke-opacity: 0.3; stroke-width: 0.8; stroke-linecap: square"/>
     </g>
     <g id="line2d_72">
      <g>
       <use xlink:href="#m43bb67e645" x="70" y="208.432663" style="stroke: #000000; stroke-width: 0.6"/>
      </g>
     </g>
    </g>
    <g id="ytick_30">
     <g id="line2d_73">
      <path d="M 70 179.044539 
L 713.51375 179.044539 
" clip-path="url(#pade43ba6c7)" style="fill: none; stroke: #b0b0b0; stroke-opacity: 0.3; stroke-width: 0.8; stroke-linecap: square"/>
     </g>
     <g id="line2d_74">
      <g>
       <use xlink:href="#m43bb67e645" x="70" y="179.044539" style="stroke: #000000; stroke-width: 0.6"/>
      </g>
     </g>
    </g>
    <g id="ytick_31">
     <g id="line2d_75">
      <path d="M 70 164.12188 
L 713.51375 164.12188 
" clip-path="url(#pade43ba6c7)" style="fill: none; stroke: #b0b0b0; stroke-opacity: 0.3; stroke-width: 0.8; stroke-linecap: square"/>
     </g>
     <g id="line2d_76">
      <g>
       <use xlink:href="#m43bb67e645" x="70" y="164.12188" style="stroke: #000000; stroke-width: 0.6"/>
      </g>
     </g>
    </g>
    <g id="ytick_32">
     <g id="line2d_77">
      <path d="M 70 153.534084 
L 713.51375 153.534084 
" clip-path="url(#pade43ba6c7)" style="fill: none; stroke: #b0b0b0; stroke-opacity: 0.3; stroke-width: 0.8; stroke-linecap: square"/>
     </g>
     <g id="line2d_78">
      <g>
       <use xlink:href="#m43bb67e645" x="70" y="153.534084" style="stroke: #000000; stroke-width: 0.6"/>
      </g>
     </g>
    </g>
    <g id="ytick_33">
     <g id="line2d_79">
      <path d="M 70 145.321552 
L 713.51375 145.321552 
" clip-path="url(#pade43ba6c7)" style="fill: none; stroke: #b0b0b0; stroke-opacity: 0.3; stroke-width: 0.8; stroke-linecap: square"/>
     </g>
     <g id="line2d_80">
      <g>
       <use xlink:href="#m43bb67e645" x="70" y="145.321552" style="stroke: #000000; stroke-width: 0.6"/>
      </g>
     </g>
    </g>
    <g id="ytick_34">
     <g id="line2d_81">
      <path d="M 70 138.611425 
L 713.51375 138.611425 
" clip-path="url(#pade43ba6c7)" style="fill: none; stroke: #b0b0b0; stroke-opacity: 0.3; stroke-width: 0.8; stroke-linecap: square"/>
     </g>
     <g id="line2d_82">
      <g>
       <use xlink:href="#m43bb67e645" x="70" y="138.611425" style="stroke: #000000; stroke-width: 0.6"/>
      </g>
     </g>
    </g>
    <g id="ytick_35">
     <g id="line2d_83">
      <path d="M 70 132.938093 
L 713.51375 132.938093 
" clip-path="url(#pade43ba6c7)" style="fill: none; stroke: #b0b0b0; stroke-opacity: 0.3; stroke-width: 0.8; stroke-linecap: square"/>
     </g>
     <g id="line2d_84">
      <g>
       <use xlink:href="#m43bb67e645" x="70" y="132.938093" style="stroke: #000000; stroke-width: 0.6"/>
      </g>
     </g>
    </g>
    <g id="ytick_36">
     <g id="line2d_85">
      <path d="M 70 128.023629 
L 713.51375 128.023629 
" clip-path="url(#pade43ba6c7)" style="fill: none; stroke: #b0b0b0; stroke-opacity: 0.3; stroke-width: 0.8; stroke-linecap: square"/>
     </g>
     <g id="line2d_86">
      <g>
       <use xlink:href="#m43bb67e645" x="70" y="128.023629" style="stroke: #000000; stroke-width: 0.6"/>
      </g>
     </g>
    </g>
    <g id="ytick_37">
     <g id="line2d_87">
      <path d="M 70 123.688765 
L 713.51375 123.688765 
" clip-path="url(#pade43ba6c7)" style="fill: none; stroke: #b0b0b0; stroke-opacity: 0.3; stroke-width: 0.8; stroke-linecap: square"/>
     </g>
     <g id="line2d_88">
      <g>
       <use xlink:href="#m43bb67e645" x="70" y="123.688765" style="stroke: #000000; stroke-width: 0.6"/>
      </g>
     </g>
    </g>
    <g id="ytick_38">
     <g id="line2d_89">
      <path d="M 70 94.300642 
L 713.51375 94.300642 
" clip-path="url(#pade43ba6c7)" style="fill: none; stroke: #b0b0b0; stroke-opacity: 0.3; stroke-width: 0.8; stroke-linecap: square"/>
     </g>
     <g id="line2d_90">
      <g>
       <use xlink:href="#m43bb67e645" x="70" y="94.300642" style="stroke: #000000; stroke-width: 0.6"/>
      </g>
     </g>
    </g>
    <g id="ytick_39">
     <g id="line2d_91">
      <path d="M 70 79.377982 
L 713.51375 79.377982 
" clip-path="url(#pade43ba6c7)" style="fill: none; stroke: #b0b0b0; stroke-opacity: 0.3; stroke-width: 0.8; stroke-linecap: square"/>
     </g>
     <g id="line2d_92">
      <g>
       <use xlink:href="#m43bb67e645" x="70" y="79.377982" style="stroke: #000000; stroke-width: 0.6"/>
      </g>
     </g>
    </g>
    <g id="ytick_40">
     <g id="line2d_93">
      <path d="M 70 68.790187 
L 713.51375 68.790187 
" clip-path="url(#pade43ba6c7)" style="fill: none; stroke: #b0b0b0; stroke-opacity: 0.3; stroke-width: 0.8; stroke-linecap: square"/>
     </g>
     <g id="line2d_94">
      <g>
       <use xlink:href="#m43bb67e645" x="70" y="68.790187" style="stroke: #000000; stroke-width: 0.6"/>
      </g>
     </g>
    </g>
    <g id="ytick_41">
     <g id="line2d_95">
      <path d="M 70 60.577654 
L 713.51375 60.577654 
" clip-path="url(#pade43ba6c7)" style="fill: none; stroke: #b0b0b0; stroke-opacity: 0.3; stroke-width: 0.8; stroke-linecap: square"/>
     </g>
     <g id="line2d_96">
      <g>
       <use xlink:href="#m43bb67e645" x="70" y="60.577654" style="stroke: #000000; stroke-width: 0.6"/>
      </g>
     </g>
    </g>
    <g id="ytick_42">
     <g id="line2d_97">
      <path d="M 70 53.867527 
L 713.51375 53.867527 
" clip-path="url(#pade43ba6c7)" style="fill: none; stroke: #b0b0b0; stroke-opacity: 0.3; stroke-width: 0.8; stroke-linecap: square"/>
     </g>
     <g id="line2d_98">
      <g>
       <use xlink:href="#m43bb67e645" x="70" y="53.867527" style="stroke: #000000; stroke-width: 0.6"/>
      </g>
     </g>
    </g>
    <g id="ytick_43">
     <g id="line2d_99">
      <path d="M 70 48.194195 
L 713.51375 48.194195 
" clip-path="url(#pade43ba6c7)" style="fill: none; stroke: #b0b0b0; stroke-opacity: 0.3; stroke-width: 0.8; stroke-linecap: square"/>
     </g>
     <g id="line2d_100">
      <g>
       <use xlink:href="#m43bb67e645" x="70" y="48.194195" style="stroke: #000000; stroke-width: 0.6"/>
      </g>
     </g>
    </g>
    <g id="ytick_44">
     <g id="line2d_101">
      <path d="M 70 43.279731 
L 713.51375 43.279731 
" clip-path="url(#pade43ba6c7)" style="fill: none; stroke: #b0b0b0; stroke-opacity: 0.3; stroke-width: 0.8; stroke-linecap: square"/>
     </g>
     <g id="line2d_102">
      <g>
       <use xlink:href="#m43bb67e645" x="70" y="43.279731" style="stroke: #000000; stroke-width: 0.6"/>
      </g>
     </g>
    </g>
    <g id="ytick_45">
     <g id="line2d_103">
      <path d="M 70 38.944867 
L 713.51375 38.944867 
" clip-path="url(#pade43ba6c7)" style="fill: none; stroke: #b0b0b0; stroke-opacity: 0.3; stroke-width: 0.8; stroke-linecap: square"/>
     </g>
     <g id="line2d_104">
      <g>
       <use xlink:href="#m43bb67e645" x="70" y="38.944867" style="stroke: #000000; stroke-width: 0.6"/>
      </g>
     </g>
    </g>
    <g id="ytick_46">
     <g id="line2d_105">
      <path d="M 70 9.556744 
L 713.51375 9.556744 
" clip-path="url(#pade43ba6c7)" style="fill: none; stroke: #b0b0b0; stroke-opacity: 0.3; stroke-width: 0.8; stroke-linecap: square"/>
     </g>
     <g id="line2d_106">
      <g>
       <use xlink:href="#m43bb67e645" x="70" y="9.556744" style="stroke: #000000; stroke-width: 0.6"/>
      </g>
     </g>
    </g>
    <g id="text_14">
     <!-- Концентрация клеток [кл/мл] -->
     <g transform="translate(24.957187 385.450469) rotate(-90) scale(0.26 -0.26)">
      <defs>
       <path id="STIXGeneral-Regular-41a" d="M 4390 0 
L 3168 0 
Q 2931 211 2413 1094 
Q 2202 1446 2006 1676 
Q 1811 1907 1715 1971 
Q 1587 2054 1357 2061 
L 1357 710 
Q 1357 352 1459 253 
Q 1562 154 1926 122 
L 1926 0 
L 122 0 
L 122 122 
Q 493 141 598 272 
Q 704 403 704 826 
L 704 3514 
Q 704 3872 601 3981 
Q 499 4090 128 4115 
L 128 4237 
L 1933 4237 
L 1933 4115 
Q 1542 4090 1449 3987 
Q 1357 3885 1357 3507 
L 1357 2317 
Q 1696 2317 1811 2362 
Q 1984 2426 2112 2525 
Q 2240 2624 2333 2784 
Q 2426 2944 2480 3065 
Q 2534 3187 2611 3418 
Q 2765 3866 2982 4096 
Q 3200 4326 3597 4326 
Q 3827 4326 3952 4214 
Q 4077 4102 4077 3923 
Q 4077 3789 3997 3670 
Q 3917 3552 3763 3552 
Q 3642 3552 3558 3609 
Q 3475 3667 3446 3734 
Q 3418 3802 3376 3859 
Q 3334 3917 3283 3917 
Q 3181 3917 3085 3792 
Q 2989 3667 2941 3548 
Q 2893 3430 2816 3206 
Q 2541 2406 2099 2208 
L 2099 2195 
Q 2368 2086 2557 1923 
Q 2746 1760 2950 1466 
Q 3040 1331 3187 1113 
Q 3334 896 3408 787 
Q 3482 678 3574 563 
Q 3667 448 3744 384 
Q 4058 128 4390 122 
L 4390 0 
z
" transform="scale(0.015625)"/>
       <path id="STIXGeneral-Regular-43e" d="M 3046 1478 
Q 3046 806 2646 371 
Q 2246 -64 1606 -64 
Q 1018 -64 621 368 
Q 224 800 224 1459 
Q 224 2125 621 2534 
Q 1018 2944 1664 2944 
Q 2259 2944 2652 2537 
Q 3046 2131 3046 1478 
z
M 2470 1306 
Q 2470 2035 2150 2445 
Q 1894 2765 1542 2765 
Q 1210 2765 1005 2493 
Q 800 2221 800 1747 
Q 800 928 1139 435 
Q 1357 115 1715 115 
Q 2067 115 2268 432 
Q 2470 749 2470 1306 
z
" transform="scale(0.015625)"/>
       <path id="STIXGeneral-Regular-446" d="M 3213 2880 
L 3213 2784 
Q 2957 2765 2886 2697 
Q 2816 2630 2816 2381 
L 2816 512 
Q 2816 230 2883 169 
Q 2950 109 3206 96 
L 3206 -877 
L 3110 -877 
Q 3021 -563 2937 -374 
Q 2854 -186 2755 -109 
Q 2656 -32 2589 -16 
Q 2522 0 2394 0 
L 147 0 
L 147 96 
Q 397 109 470 176 
Q 544 243 544 525 
L 544 2400 
Q 544 2643 477 2700 
Q 410 2758 154 2784 
L 154 2880 
L 1485 2880 
L 1485 2784 
Q 1242 2765 1162 2691 
Q 1082 2618 1082 2406 
L 1082 499 
Q 1082 320 1142 249 
Q 1203 179 1338 179 
L 2010 179 
Q 2278 179 2278 499 
L 2278 2419 
Q 2278 2611 2192 2688 
Q 2106 2765 1862 2784 
L 1862 2880 
L 3213 2880 
z
" transform="scale(0.015625)"/>
       <path id="STIXGeneral-Regular-442" d="M 2726 1978 
L 2618 1978 
Q 2554 2362 2390 2531 
Q 2227 2701 1862 2701 
Q 1741 2701 1699 2656 
Q 1658 2611 1658 2496 
L 1658 461 
Q 1658 262 1734 188 
Q 1811 115 2054 96 
L 2054 0 
L 723 0 
L 723 96 
Q 986 115 1053 176 
Q 1120 237 1120 506 
L 1120 2496 
Q 1120 2624 1075 2662 
Q 1030 2701 902 2701 
Q 544 2701 384 2531 
Q 224 2362 160 1978 
L 51 1978 
L 83 2880 
L 2694 2880 
L 2726 1978 
z
" transform="scale(0.015625)"/>
       <path id="STIXGeneral-Regular-430" d="M 2854 422 
L 2854 243 
Q 2611 -64 2278 -64 
Q 1914 -64 1869 403 
L 1862 403 
Q 1453 -64 909 -64 
Q 608 -64 422 112 
Q 237 288 237 602 
Q 237 1050 685 1350 
Q 960 1530 1862 1869 
L 1862 2214 
Q 1862 2496 1715 2633 
Q 1568 2771 1338 2771 
Q 1146 2771 1018 2688 
Q 890 2605 890 2477 
Q 890 2419 909 2348 
Q 928 2278 928 2208 
Q 928 2112 841 2029 
Q 755 1946 634 1946 
Q 525 1946 441 2029 
Q 358 2112 358 2240 
Q 358 2547 685 2752 
Q 986 2944 1421 2944 
Q 1939 2944 2176 2656 
Q 2298 2509 2339 2368 
Q 2381 2227 2381 1946 
L 2381 723 
Q 2381 301 2579 301 
Q 2707 301 2854 422 
z
M 1862 832 
L 1862 1690 
Q 1280 1485 1018 1242 
Q 800 1043 800 800 
Q 800 557 921 432 
Q 1043 307 1242 307 
Q 1478 307 1638 410 
Q 1773 499 1817 592 
Q 1862 685 1862 832 
z
" transform="scale(0.015625)"/>
       <path id="STIXGeneral-Regular-43a" d="M 3168 0 
L 2323 0 
L 1626 1050 
Q 1459 1299 1392 1356 
Q 1325 1414 1165 1440 
L 1165 429 
Q 1165 256 1235 182 
Q 1306 109 1498 102 
L 1645 96 
L 1645 0 
L 147 0 
L 147 96 
L 326 109 
Q 506 122 566 192 
Q 627 262 627 429 
L 627 2413 
Q 627 2637 553 2701 
Q 480 2765 237 2790 
L 237 2880 
L 1562 2880 
L 1562 2790 
Q 1331 2765 1248 2685 
Q 1165 2605 1165 2426 
L 1165 1619 
Q 1408 1619 1587 1728 
Q 1651 1766 1721 1865 
Q 1792 1965 1837 2051 
Q 1882 2138 1958 2291 
Q 2035 2445 2067 2509 
Q 2285 2918 2650 2918 
Q 2829 2918 2934 2828 
Q 3040 2739 3040 2611 
Q 3040 2490 2957 2410 
Q 2874 2330 2746 2330 
Q 2669 2330 2553 2378 
Q 2438 2426 2400 2426 
Q 2304 2426 2230 2330 
Q 2157 2234 2105 2106 
Q 2054 1978 1939 1814 
Q 1824 1651 1670 1549 
L 1670 1536 
Q 1926 1421 2102 1257 
Q 2278 1094 2458 742 
Q 2637 397 2829 218 
Q 2938 115 3168 96 
L 3168 0 
z
" transform="scale(0.015625)"/>
       <path id="STIXGeneral-Regular-43b" d="M 3046 2880 
L 3046 2784 
Q 2790 2765 2720 2691 
Q 2650 2618 2650 2342 
L 2650 506 
Q 2650 256 2720 189 
Q 2790 122 3040 96 
L 3040 0 
L 1715 0 
L 1715 96 
Q 1958 115 2035 188 
Q 2112 262 2112 474 
L 2112 2426 
Q 2112 2605 2067 2653 
Q 2022 2701 1856 2701 
L 1408 2701 
Q 1280 2701 1225 2637 
Q 1171 2573 1171 2413 
L 1171 1146 
Q 1171 998 1164 899 
Q 1158 800 1142 640 
Q 1126 480 1081 371 
Q 1037 262 966 153 
Q 896 45 774 -9 
Q 653 -64 499 -64 
Q 51 -64 51 256 
Q 51 371 128 435 
Q 205 499 294 499 
Q 429 499 512 326 
Q 595 154 646 154 
Q 960 154 960 1274 
L 960 2342 
Q 960 2598 886 2678 
Q 813 2758 570 2784 
L 570 2880 
L 3046 2880 
z
" transform="scale(0.015625)"/>
       <path id="STIXGeneral-Regular-2f" d="M 1837 4326 
L 378 -90 
L -58 -90 
L 1408 4326 
L 1837 4326 
z
" transform="scale(0.015625)"/>
      </defs>
      <use xlink:href="#STIXGeneral-Regular-41a"/>
      <use xlink:href="#STIXGeneral-Regular-43e" transform="translate(68.999985 0)"/>
      <use xlink:href="#STIXGeneral-Regular-43d" transform="translate(120.199982 0)"/>
      <use xlink:href="#STIXGeneral-Regular-446" transform="translate(172.699966 0)"/>
      <use xlink:href="#STIXGeneral-Regular-435" transform="translate(225.199951 0)"/>
      <use xlink:href="#STIXGeneral-Regular-43d" transform="translate(271.799942 0)"/>
      <use xlink:href="#STIXGeneral-Regular-442" transform="translate(324.299927 0)"/>
      <use xlink:href="#STIXGeneral-Regular-440" transform="translate(367.699921 0)"/>
      <use xlink:href="#STIXGeneral-Regular-430" transform="translate(417.599915 0)"/>
      <use xlink:href="#STIXGeneral-Regular-446" transform="translate(462.599899 0)"/>
      <use xlink:href="#STIXGeneral-Regular-438" transform="translate(515.099884 0)"/>
      <use xlink:href="#STIXGeneral-Regular-44f" transform="translate(567.599869 0)"/>
      <use xlink:href="#STIXGeneral-Regular-20" transform="translate(614.69986 0)"/>
      <use xlink:href="#STIXGeneral-Regular-43a" transform="translate(639.699844 0)"/>
      <use xlink:href="#STIXGeneral-Regular-43b" transform="translate(689.999832 0)"/>
      <use xlink:href="#STIXGeneral-Regular-435" transform="translate(739.899826 0)"/>
      <use xlink:href="#STIXGeneral-Regular-442" transform="translate(786.499817 0)"/>
      <use xlink:href="#STIXGeneral-Regular-43e" transform="translate(829.899811 0)"/>
      <use xlink:href="#STIXGeneral-Regular-43a" transform="translate(881.099808 0)"/>
      <use xlink:href="#STIXGeneral-Regular-20" transform="translate(931.399796 0)"/>
      <use xlink:href="#STIXGeneral-Regular-5b" transform="translate(956.39978 0)"/>
      <use xlink:href="#STIXGeneral-Regular-43a" transform="translate(989.699768 0)"/>
      <use xlink:href="#STIXGeneral-Regular-43b" transform="translate(1039.999756 0)"/>
      <use xlink:href="#STIXGeneral-Regular-2f" transform="translate(1089.89975 0)"/>
      <use xlink:href="#STIXGeneral-Regular-43c" transform="translate(1117.699738 0)"/>
      <use xlink:href="#STIXGeneral-Regular-43b" transform="translate(1179.399734 0)"/>
      <use xlink:href="#STIXGeneral-Regular-5d" transform="translate(1229.299728 0)"/>
     </g>
    </g>
   </g>
   <g id="line2d_107">
    <path d="M 333.255625 435.4225 
L 333.255625 7.2 
" clip-path="url(#pade43ba6c7)" style="fill: none; stroke-dasharray: 1.5,2.475; stroke-dashoffset: 0; stroke: #808080; stroke-opacity: 0.5; stroke-width: 1.5"/>
   </g>
   <g id="line2d_108">
    <path d="M 99.250625 230.06545 
L 100.422995 230.252568 
L 101.595364 230.20545 
L 102.767734 229.937251 
L 103.940104 229.460461 
L 105.112474 228.787005 
L 106.284843 227.928102 
L 107.457213 226.894305 
L 109.801953 224.341561 
L 112.146692 221.20265 
L 114.491432 217.543524 
L 116.836171 213.423119 
L 119.180911 208.89412 
L 122.69802 201.436059 
L 126.215129 193.301847 
L 129.732238 184.60918 
L 134.421717 172.32222 
L 139.111196 159.422024 
L 146.145415 139.292339 
L 164.90333 84.875864 
L 168.42044 75.414976 
L 170.765179 69.503274 
L 173.109919 64.078851 
L 175.454658 59.384914 
L 176.627028 57.427287 
L 177.799398 55.81734 
L 178.971767 54.643193 
L 180.144137 54.013502 
L 181.316507 54.05721 
L 182.488877 54.91816 
L 183.661246 56.741856 
L 184.833616 59.653009 
L 186.005986 63.726657 
L 187.178355 68.9621 
L 188.350725 75.270186 
L 190.695465 90.376331 
L 196.557313 132.436238 
L 197.729683 142.285697 
L 198.902053 158.781539 
L 201.246792 194.921473 
L 203.591532 226.556476 
L 205.936271 253.886198 
L 208.281011 277.293056 
L 210.62575 297.180927 
L 212.97049 313.93131 
L 215.315229 327.891701 
L 216.487599 333.92452 
L 217.659969 339.374195 
L 218.832338 344.274519 
L 220.004708 348.657354 
L 221.177078 352.552766 
L 222.349448 355.989098 
L 223.521817 358.993047 
L 224.694187 361.58978 
L 225.866557 363.802997 
L 227.038927 365.655033 
L 228.211296 367.166932 
L 229.383666 368.358505 
L 230.556036 369.248419 
L 231.728406 369.854261 
L 232.900775 370.192585 
L 234.073145 370.278984 
L 235.245515 370.128149 
L 236.417885 369.75432 
L 237.590254 369.172866 
L 238.762624 368.395158 
L 239.934994 367.430664 
L 241.107363 366.290213 
L 243.452103 363.521832 
L 245.796842 360.16531 
L 248.141582 356.287217 
L 250.486321 351.946631 
L 252.831061 347.195955 
L 256.34817 339.401219 
L 259.865279 330.922456 
L 263.382389 321.872605 
L 268.071867 309.078893 
L 272.761346 295.618184 
L 278.623195 278.085517 
L 285.657414 256.274871 
L 293.864002 230.070491 
L 305.587699 191.77256 
L 337.241682 87.751106 
L 343.103531 69.41395 
L 347.79301 55.469406 
L 351.310119 45.775517 
L 353.654858 39.984496 
L 354.827228 37.434606 
L 355.999598 35.24432 
L 357.171968 33.581718 
L 358.344337 32.710455 
L 359.516707 33.029635 
L 360.689077 35.094871 
L 361.861447 39.561425 
L 363.033816 46.983001 
L 364.206186 57.512347 
L 365.378556 70.737729 
L 367.723295 101.907832 
L 371.240405 149.648835 
L 373.585144 178.102667 
L 375.929884 203.049283 
L 378.274623 224.547357 
L 380.619362 242.845933 
L 382.964102 258.243595 
L 385.308841 271.037847 
L 386.481211 276.546736 
L 387.653581 281.507433 
L 388.825951 285.950917 
L 389.99832 289.906632 
L 391.17069 293.40244 
L 392.34306 296.464713 
L 393.51543 299.118373 
L 394.687799 301.386951 
L 395.860169 303.29269 
L 397.032539 304.856565 
L 398.204909 306.098346 
L 399.377278 307.036705 
L 400.549648 307.689238 
L 401.722018 308.072522 
L 402.894388 308.202184 
L 404.066757 308.092966 
L 405.239127 307.758753 
L 406.411497 307.212626 
L 407.583866 306.466904 
L 408.756236 305.533202 
L 409.928606 304.42247 
L 412.273345 301.710557 
L 414.618085 298.406655 
L 416.962824 294.577748 
L 419.307564 290.283327 
L 421.652303 285.57621 
L 425.169413 277.842825 
L 428.686522 269.421552 
L 432.203631 260.426631 
L 436.89311 247.70411 
L 441.582589 234.315228 
L 447.444438 216.863038 
L 454.478656 195.158182 
L 463.857614 165.392181 
L 489.649748 82.956128 
L 494.339227 68.82923 
L 497.856336 58.820589 
L 500.201076 52.622308 
L 502.545815 47.059859 
L 503.718185 44.646933 
L 504.890555 42.596478 
L 506.062925 41.046007 
L 507.235294 40.191996 
L 508.407664 40.305203 
L 509.580034 41.732987 
L 510.752404 44.866751 
L 511.924773 50.053423 
L 513.097143 57.462614 
L 514.269513 66.980324 
L 515.441883 78.213782 
L 517.786622 103.613068 
L 521.303731 142.16255 
L 523.648471 165.303285 
L 525.99321 185.659356 
L 528.33795 203.190356 
L 530.682689 218.04574 
L 533.027429 230.442433 
L 534.199798 235.791514 
L 535.372168 240.612857 
L 536.544538 244.934375 
L 537.716908 248.783031 
L 538.889277 252.18467 
L 540.061647 255.163999 
L 541.234017 257.744557 
L 542.406387 259.948711 
L 543.578756 261.797721 
L 544.751126 263.311716 
L 545.923496 264.509741 
L 547.095865 265.409843 
L 548.268235 266.029071 
L 549.440605 266.383524 
L 550.612975 266.488413 
L 551.785344 266.358107 
L 552.957714 266.006169 
L 554.130084 265.445388 
L 555.302454 264.687826 
L 556.474823 263.744873 
L 557.647193 262.627274 
L 559.991933 259.908079 
L 562.336672 256.604514 
L 564.681412 252.782604 
L 567.026151 248.501104 
L 569.370891 243.812264 
L 572.888 236.115513 
L 576.405109 227.741282 
L 579.922218 218.803662 
L 584.611697 206.174402 
L 589.301176 192.900842 
L 595.163025 175.632305 
L 603.369613 150.615117 
L 625.644638 82.049563 
L 630.334117 68.669335 
L 632.678856 62.429488 
L 635.023596 56.688023 
L 637.368335 51.730922 
L 638.540705 49.695168 
L 639.713075 48.078202 
L 640.885445 47.013058 
L 642.057814 46.673247 
L 643.230184 47.273676 
L 644.402554 49.0581 
L 645.574924 52.264555 
L 646.747293 57.067376 
L 647.919663 63.512409 
L 649.092033 71.478875 
L 650.264403 80.694215 
L 652.609142 101.408422 
L 656.126251 133.302808 
L 658.470991 152.778993 
L 660.81573 170.059517 
L 663.16047 185.000879 
L 665.505209 197.660401 
L 667.849949 208.182633 
L 669.022318 212.697131 
L 670.194688 216.744504 
L 671.367058 220.347652 
L 672.539428 223.529026 
L 673.711797 226.310497 
L 674.884167 228.713181 
L 676.056537 230.757362 
L 677.228907 232.462491 
L 678.401276 233.847143 
L 679.573646 234.928995 
L 680.746016 235.724876 
L 681.918386 236.250784 
L 683.090755 236.521878 
L 684.263125 236.552526 
L 684.263125 236.552526 
" clip-path="url(#pade43ba6c7)" style="fill: none; stroke: #1f77b4; stroke-width: 3; stroke-linecap: square"/>
   </g>
   <g id="line2d_109">
    <path d="M 99.250625 246.490514 
L 118.008541 280.304406 
L 125.042759 292.559114 
L 130.904608 302.346613 
L 135.594087 309.725671 
L 139.111196 314.873302 
L 142.628305 319.563029 
L 144.973045 322.36028 
L 147.317784 324.82777 
L 149.662524 326.895301 
L 152.007263 328.47853 
L 153.179633 329.057744 
L 154.352003 329.476654 
L 155.524372 329.719674 
L 156.696742 329.769905 
L 157.869112 329.609067 
L 159.041482 329.21746 
L 160.213851 328.573944 
L 161.386221 327.655882 
L 162.558591 326.439247 
L 163.730961 324.898733 
L 164.90333 323.007911 
L 166.0757 320.739492 
L 167.24807 318.065764 
L 168.42044 314.959249 
L 169.592809 311.393531 
L 170.765179 307.344432 
L 171.937549 302.791714 
L 173.109919 297.721306 
L 175.454658 286.020571 
L 177.799398 272.389314 
L 181.316507 249.646395 
L 183.661246 234.79813 
L 184.833616 228.133742 
L 186.005986 222.270293 
L 187.178355 217.364629 
L 188.350725 213.491699 
L 189.523095 210.640321 
L 190.695465 208.7294 
L 191.867834 207.635544 
L 193.040204 207.220588 
L 194.212574 207.351783 
L 195.384944 207.91287 
L 196.557313 208.807898 
L 197.729683 195.771282 
L 198.902053 184.573525 
L 200.074423 186.224634 
L 202.419162 190.200965 
L 207.108641 198.774192 
L 222.349448 227.417746 
L 275.106086 326.648018 
L 277.450825 330.54821 
L 291.519262 356.62977 
L 299.72585 371.425215 
L 305.587699 381.574285 
L 310.277178 389.257136 
L 313.794287 394.633001 
L 317.311397 399.539029 
L 319.656136 402.464673 
L 322.000876 405.038233 
L 324.345615 407.177701 
L 325.517985 408.054074 
L 326.690354 408.782603 
L 327.862724 409.347202 
L 329.035094 409.730202 
L 330.207464 409.912045 
L 331.379833 409.871192 
L 332.552203 409.583984 
L 333.724573 409.024467 
L 334.896943 408.164215 
L 336.069312 406.972147 
L 337.241682 405.41427 
L 338.414052 403.453657 
L 339.586422 401.050233 
L 340.758791 398.160728 
L 341.931161 394.738444 
L 343.103531 390.733439 
L 344.275901 386.092597 
L 345.44827 380.759749 
L 346.62064 374.676284 
L 347.79301 367.781843 
L 348.96538 360.015551 
L 350.137749 351.318023 
L 351.310119 341.634415 
L 352.482489 330.919375 
L 354.827228 306.313187 
L 357.171968 277.77113 
L 360.689077 232.076656 
L 361.861447 218.576947 
L 363.033816 207.393733 
L 364.206186 199.09465 
L 365.378556 193.69161 
L 366.550926 190.723512 
L 367.723295 189.547282 
L 368.895665 189.579466 
L 370.068035 190.388177 
L 371.240405 191.685939 
L 372.412774 193.291184 
L 374.757514 197.017589 
L 378.274623 203.191563 
L 385.308841 216.15656 
L 407.583866 257.943742 
L 434.54837 308.360327 
L 445.099698 327.676333 
L 452.133917 340.155148 
L 457.995765 350.080252 
L 462.685244 357.503421 
L 466.202353 362.616797 
L 468.547093 365.731949 
L 470.891832 368.548351 
L 473.236572 370.997411 
L 475.581311 372.995228 
L 476.753681 373.793765 
L 477.926051 374.439492 
L 479.098421 374.916184 
L 480.27079 375.205946 
L 481.44316 375.289116 
L 482.61553 375.144145 
L 483.7879 374.747452 
L 484.960269 374.073285 
L 486.132639 373.09359 
L 487.305009 371.777813 
L 488.477379 370.092886 
L 489.649748 368.003172 
L 490.822118 365.470426 
L 491.994488 362.453747 
L 493.166857 358.909854 
L 494.339227 354.7934 
L 495.511597 350.057372 
L 496.683967 344.653983 
L 497.856336 338.535995 
L 499.028706 331.658522 
L 500.201076 323.98207 
L 501.373446 315.476818 
L 503.718185 295.951717 
L 506.062925 273.377787 
L 510.752404 225.982015 
L 511.924773 216.275462 
L 513.097143 208.434044 
L 514.269513 202.654252 
L 515.441883 198.838198 
L 516.614252 196.679726 
L 517.786622 195.799041 
L 518.958992 195.844703 
L 520.131361 196.537765 
L 521.303731 197.675299 
L 522.476101 199.116577 
L 524.82084 202.560357 
L 528.33795 208.44256 
L 534.199798 218.953448 
L 545.923496 240.629295 
L 572.888 290.577593 
L 582.266958 307.496809 
L 589.301176 319.717423 
L 593.990655 327.464239 
L 597.507764 332.952096 
L 601.024873 338.053678 
L 603.369613 341.174127 
L 605.714352 344.010818 
L 608.059092 346.500294 
L 610.403831 348.565316 
L 611.576201 349.410097 
L 612.748571 350.112192 
L 613.920941 350.656822 
L 615.09331 351.02777 
L 616.26568 351.207287 
L 617.43805 351.175988 
L 618.61042 350.912752 
L 619.782789 350.394656 
L 620.955159 349.59677 
L 622.127529 348.49218 
L 623.299899 347.051968 
L 624.472268 345.245231 
L 625.644638 343.039088 
L 626.817008 340.398868 
L 627.989378 337.288442 
L 629.161747 333.670718 
L 630.334117 329.508251 
L 631.506487 324.764411 
L 632.678856 319.404968 
L 633.851226 313.400254 
L 635.023596 306.728473 
L 637.368335 291.36489 
L 639.713075 273.518812 
L 645.574924 226.066007 
L 646.747293 218.491868 
L 647.919663 212.300527 
L 649.092033 207.602146 
L 650.264403 204.343073 
L 651.436772 202.348451 
L 652.609142 201.387355 
L 653.781512 201.228269 
L 654.953882 201.670581 
L 656.126251 202.554973 
L 657.298621 203.761399 
L 659.64336 206.813917 
L 661.9881 210.382805 
L 665.505209 216.234104 
L 671.367058 226.570248 
L 683.090755 247.883658 
L 684.263125 250.026754 
L 684.263125 250.026754 
" clip-path="url(#pade43ba6c7)" style="fill: none; stroke-dasharray: 11.1,4.8; stroke-dashoffset: 0; stroke: #ff7f0e; stroke-width: 3"/>
   </g>
   <g id="line2d_110"/>
   <g id="line2d_111">
    <path d="M 196.752708 435.4225 
L 196.752708 7.2 
" clip-path="url(#pade43ba6c7)" style="fill: none; stroke-dasharray: 5.55,2.4; stroke-dashoffset: 0; stroke: #0000ff; stroke-opacity: 0.2; stroke-width: 1.5"/>
   </g>
   <g id="line2d_112">
    <path d="M 235.753542 435.4225 
L 235.753542 7.2 
" clip-path="url(#pade43ba6c7)" style="fill: none; stroke-dasharray: 5.55,2.4; stroke-dashoffset: 0; stroke: #0000ff; stroke-opacity: 0.2; stroke-width: 1.5"/>
   </g>
   <g id="line2d_113">
    <path d="M 274.754375 435.4225 
L 274.754375 7.2 
" clip-path="url(#pade43ba6c7)" style="fill: none; stroke-dasharray: 5.55,2.4; stroke-dashoffset: 0; stroke: #0000ff; stroke-opacity: 0.2; stroke-width: 1.5"/>
   </g>
   <g id="patch_3">
    <path d="M 70 435.4225 
L 70 7.2 
" style="fill: none; stroke: #000000; stroke-width: 0.8; stroke-linejoin: miter; stroke-linecap: square"/>
   </g>
   <g id="patch_4">
    <path d="M 713.51375 435.4225 
L 713.51375 7.2 
" style="fill: none; stroke: #000000; stroke-width: 0.8; stroke-linejoin: miter; stroke-linecap: square"/>
   </g>
   <g id="patch_5">
    <path d="M 70 435.4225 
L 713.51375 435.4225 
" style="fill: none; stroke: #000000; stroke-width: 0.8; stroke-linejoin: miter; stroke-linecap: square"/>
   </g>
   <g id="patch_6">
    <path d="M 70 7.2 
L 713.51375 7.2 
" style="fill: none; stroke: #000000; stroke-width: 0.8; stroke-linejoin: miter; stroke-linecap: square"/>
   </g>
   <g id="legend_1">
    <g id="patch_7">
     <path d="M 386.910625 425.4225 
L 699.51375 425.4225 
Q 703.51375 425.4225 703.51375 421.4225 
L 703.51375 338.363125 
Q 703.51375 334.363125 699.51375 334.363125 
L 386.910625 334.363125 
Q 382.910625 334.363125 382.910625 338.363125 
L 382.910625 421.4225 
Q 382.910625 425.4225 386.910625 425.4225 
z
" style="fill: #ffffff; opacity: 0.8; stroke: #cccccc; stroke-linejoin: miter"/>
    </g>
    <g id="line2d_114">
     <path d="M 390.910625 349.363125 
L 410.910625 349.363125 
L 430.910625 349.363125 
" style="fill: none; stroke: #1f77b4; stroke-width: 3; stroke-linecap: square"/>
    </g>
    <g id="text_15">
     <!-- Опухолевые клетки (модель) -->
     <g transform="translate(446.910625 356.363125) scale(0.2 -0.2)">
      <defs>
       <path id="STIXGeneral-Regular-41e" d="M 4416 2118 
Q 4416 1133 3833 521 
Q 3251 -90 2323 -90 
Q 1389 -90 809 524 
Q 230 1139 230 2138 
Q 230 3110 809 3718 
Q 1389 4326 2323 4326 
Q 3258 4326 3837 3702 
Q 4416 3078 4416 2118 
z
M 3686 2157 
Q 3686 2701 3532 3133 
Q 3379 3565 3104 3795 
Q 2746 4096 2317 4096 
Q 1773 4096 1402 3667 
Q 1197 3437 1078 3011 
Q 960 2586 960 2125 
Q 960 960 1536 429 
Q 1850 141 2330 141 
Q 2829 141 3155 448 
Q 3686 960 3686 2157 
z
" transform="scale(0.015625)"/>
       <path id="STIXGeneral-Regular-43f" d="M 3213 2880 
L 3213 2784 
Q 2963 2771 2889 2704 
Q 2816 2637 2816 2355 
L 2816 480 
Q 2816 237 2883 179 
Q 2950 122 3206 96 
L 3206 0 
L 1901 0 
L 1901 96 
Q 2138 115 2208 188 
Q 2278 262 2278 474 
L 2278 2381 
Q 2278 2701 1990 2701 
L 1350 2701 
Q 1082 2701 1082 2381 
L 1082 461 
Q 1082 269 1162 192 
Q 1242 115 1478 96 
L 1478 0 
L 147 0 
L 147 96 
Q 403 115 473 182 
Q 544 250 544 499 
L 544 2368 
Q 544 2650 477 2710 
Q 410 2771 154 2784 
L 154 2880 
L 3213 2880 
z
" transform="scale(0.015625)"/>
       <path id="STIXGeneral-Regular-443" d="M 3091 2880 
L 3091 2784 
Q 2976 2771 2909 2704 
Q 2842 2637 2771 2458 
L 1722 -160 
Q 1446 -845 1203 -1120 
Q 960 -1395 602 -1395 
Q 397 -1395 275 -1289 
Q 154 -1184 154 -1024 
Q 154 -902 234 -816 
Q 314 -730 429 -730 
Q 627 -730 774 -813 
Q 858 -858 960 -858 
Q 1139 -858 1347 -470 
Q 1555 -83 1555 77 
Q 1555 134 1261 755 
L 390 2566 
Q 307 2752 51 2790 
L 51 2880 
L 1363 2880 
L 1363 2784 
Q 1158 2778 1078 2739 
Q 998 2701 998 2611 
Q 998 2541 1082 2349 
L 1850 710 
L 2522 2464 
Q 2547 2522 2547 2630 
Q 2547 2784 2240 2784 
L 2240 2880 
L 3091 2880 
z
" transform="scale(0.015625)"/>
       <path id="STIXGeneral-Regular-445" d="M 3046 0 
L 1760 0 
L 1760 96 
Q 1920 109 1968 137 
Q 2016 166 2016 250 
Q 2016 307 1978 365 
L 1389 1280 
L 883 499 
Q 762 307 762 211 
Q 762 96 1018 96 
L 1018 0 
L 90 0 
L 90 96 
Q 256 109 349 166 
Q 442 224 570 416 
L 1286 1472 
L 685 2400 
Q 538 2624 435 2704 
Q 333 2784 192 2784 
L 134 2784 
L 134 2880 
L 1459 2880 
L 1459 2784 
Q 1184 2778 1184 2643 
Q 1184 2502 1478 2074 
L 1594 1907 
L 1773 2157 
Q 1997 2470 1997 2643 
Q 1997 2765 1741 2784 
L 1741 2880 
L 2752 2880 
L 2752 2784 
Q 2426 2771 2234 2502 
L 1702 1734 
L 2522 480 
Q 2771 96 3046 96 
L 3046 0 
z
" transform="scale(0.015625)"/>
       <path id="STIXGeneral-Regular-432" d="M 1965 1517 
L 1965 1510 
Q 2330 1472 2566 1296 
Q 2803 1120 2803 806 
Q 2803 608 2700 429 
Q 2598 250 2426 147 
Q 2163 0 1760 0 
L 154 0 
L 154 96 
Q 410 102 480 172 
Q 550 243 550 493 
L 550 2394 
Q 550 2643 486 2704 
Q 422 2765 154 2784 
L 154 2880 
L 1504 2880 
Q 2624 2880 2624 2150 
Q 2624 1862 2432 1702 
Q 2240 1542 1965 1517 
z
M 1088 2502 
L 1088 1779 
Q 1088 1651 1145 1616 
Q 1203 1581 1414 1581 
Q 1728 1581 1913 1721 
Q 2099 1862 2099 2131 
Q 2099 2419 1926 2560 
Q 1754 2701 1312 2701 
Q 1197 2701 1142 2662 
Q 1088 2624 1088 2502 
z
M 1088 1235 
L 1088 435 
Q 1088 288 1145 233 
Q 1203 179 1357 179 
Q 1760 179 1990 313 
Q 2221 448 2221 800 
Q 2221 960 2169 1075 
Q 2118 1190 2041 1251 
Q 1965 1312 1846 1347 
Q 1728 1382 1629 1392 
Q 1530 1402 1395 1402 
Q 1203 1402 1145 1366 
Q 1088 1331 1088 1235 
z
" transform="scale(0.015625)"/>
       <path id="STIXGeneral-Regular-44b" d="M 4134 0 
L 2803 0 
L 2803 96 
Q 3066 115 3133 176 
Q 3200 237 3200 506 
L 3200 2342 
Q 3200 2598 3126 2678 
Q 3053 2758 2810 2784 
L 2810 2880 
L 4134 2880 
L 4134 2784 
Q 3878 2758 3808 2688 
Q 3738 2618 3738 2413 
L 3738 461 
Q 3738 269 3814 195 
Q 3891 122 4134 102 
L 4134 0 
z
M 1082 1613 
L 1504 1613 
Q 2048 1613 2384 1411 
Q 2720 1210 2720 794 
Q 2720 422 2419 211 
Q 2118 0 1632 0 
L 147 0 
L 147 96 
Q 410 115 477 176 
Q 544 237 544 506 
L 544 2342 
Q 544 2598 470 2678 
Q 397 2758 154 2784 
L 154 2880 
L 1478 2880 
L 1478 2784 
Q 1222 2758 1152 2688 
Q 1082 2618 1082 2413 
L 1082 1613 
z
M 1082 1434 
L 1082 378 
Q 1082 256 1120 217 
Q 1158 179 1299 179 
Q 1709 179 1923 313 
Q 2138 448 2138 813 
Q 2138 1171 1933 1302 
Q 1728 1434 1370 1434 
L 1082 1434 
z
" transform="scale(0.015625)"/>
       <path id="STIXGeneral-Regular-28" d="M 1946 -1030 
L 1869 -1133 
Q 1126 -710 716 32 
Q 307 774 307 1613 
Q 307 3386 1888 4326 
L 1946 4224 
Q 1293 3667 1075 3126 
Q 858 2586 858 1632 
Q 858 685 1082 96 
Q 1306 -493 1946 -1030 
z
" transform="scale(0.015625)"/>
       <path id="STIXGeneral-Regular-44c" d="M 1082 1613 
L 1504 1613 
Q 2048 1613 2384 1411 
Q 2720 1210 2720 794 
Q 2720 422 2419 211 
Q 2118 0 1632 0 
L 147 0 
L 147 96 
Q 410 115 477 176 
Q 544 237 544 506 
L 544 2342 
Q 544 2598 470 2678 
Q 397 2758 154 2784 
L 154 2880 
L 1478 2880 
L 1478 2784 
Q 1222 2758 1152 2688 
Q 1082 2618 1082 2413 
L 1082 1613 
z
M 1082 1434 
L 1082 378 
Q 1082 256 1120 217 
Q 1158 179 1299 179 
Q 1709 179 1923 313 
Q 2138 448 2138 813 
Q 2138 1171 1933 1302 
Q 1728 1434 1370 1434 
L 1082 1434 
z
" transform="scale(0.015625)"/>
       <path id="STIXGeneral-Regular-29" d="M 186 4224 
L 262 4326 
Q 992 3891 1408 3148 
Q 1824 2406 1824 1581 
Q 1824 -166 243 -1133 
L 186 -1030 
Q 845 -486 1059 54 
Q 1274 595 1274 1562 
Q 1274 2534 1059 3120 
Q 845 3706 186 4224 
z
" transform="scale(0.015625)"/>
      </defs>
      <use xlink:href="#STIXGeneral-Regular-41e"/>
      <use xlink:href="#STIXGeneral-Regular-43f" transform="translate(72.899994 0)"/>
      <use xlink:href="#STIXGeneral-Regular-443" transform="translate(125.399979 0)"/>
      <use xlink:href="#STIXGeneral-Regular-445" transform="translate(174.499969 0)"/>
      <use xlink:href="#STIXGeneral-Regular-43e" transform="translate(223.399963 0)"/>
      <use xlink:href="#STIXGeneral-Regular-43b" transform="translate(274.59996 0)"/>
      <use xlink:href="#STIXGeneral-Regular-435" transform="translate(324.499954 0)"/>
      <use xlink:href="#STIXGeneral-Regular-432" transform="translate(371.099945 0)"/>
      <use xlink:href="#STIXGeneral-Regular-44b" transform="translate(418.499939 0)"/>
      <use xlink:href="#STIXGeneral-Regular-435" transform="translate(485.499924 0)"/>
      <use xlink:href="#STIXGeneral-Regular-20" transform="translate(532.099915 0)"/>
      <use xlink:href="#STIXGeneral-Regular-43a" transform="translate(557.099899 0)"/>
      <use xlink:href="#STIXGeneral-Regular-43b" transform="translate(607.399887 0)"/>
      <use xlink:href="#STIXGeneral-Regular-435" transform="translate(657.299881 0)"/>
      <use xlink:href="#STIXGeneral-Regular-442" transform="translate(703.899872 0)"/>
      <use xlink:href="#STIXGeneral-Regular-43a" transform="translate(747.299866 0)"/>
      <use xlink:href="#STIXGeneral-Regular-438" transform="translate(797.599854 0)"/>
      <use xlink:href="#STIXGeneral-Regular-20" transform="translate(850.099838 0)"/>
      <use xlink:href="#STIXGeneral-Regular-28" transform="translate(875.099823 0)"/>
      <use xlink:href="#STIXGeneral-Regular-43c" transform="translate(908.399811 0)"/>
      <use xlink:href="#STIXGeneral-Regular-43e" transform="translate(970.099808 0)"/>
      <use xlink:href="#STIXGeneral-Regular-434" transform="translate(1021.299805 0)"/>
      <use xlink:href="#STIXGeneral-Regular-435" transform="translate(1067.499802 0)"/>
      <use xlink:href="#STIXGeneral-Regular-43b" transform="translate(1114.099792 0)"/>
      <use xlink:href="#STIXGeneral-Regular-44c" transform="translate(1163.999786 0)"/>
      <use xlink:href="#STIXGeneral-Regular-29" transform="translate(1209.699783 0)"/>
     </g>
    </g>
    <g id="line2d_115">
     <path d="M 390.910625 377.7225 
L 410.910625 377.7225 
L 430.910625 377.7225 
" style="fill: none; stroke-dasharray: 11.1,4.8; stroke-dashoffset: 0; stroke: #ff7f0e; stroke-width: 3"/>
    </g>
    <g id="text_16">
     <!-- Иммунные клетки (модель) -->
     <g transform="translate(446.910625 384.7225) scale(0.2 -0.2)">
      <defs>
       <path id="STIXGeneral-Regular-418" d="M 4506 0 
L 2720 0 
L 2720 122 
Q 3091 147 3187 265 
Q 3283 384 3283 794 
L 3283 3219 
L 1344 614 
Q 1344 339 1459 236 
Q 1574 134 1901 122 
L 1907 0 
L 122 0 
L 122 122 
Q 499 147 595 259 
Q 691 371 691 781 
L 691 3507 
Q 691 3878 592 3980 
Q 493 4083 122 4115 
L 122 4237 
L 1914 4237 
L 1914 4115 
Q 1555 4083 1449 3977 
Q 1344 3872 1344 3507 
L 1344 1050 
L 3283 3642 
Q 3283 3904 3168 3993 
Q 3053 4083 2714 4115 
L 2714 4237 
L 4506 4237 
L 4506 4115 
Q 4147 4083 4041 3977 
Q 3936 3872 3936 3507 
L 3936 710 
Q 3936 371 4041 259 
Q 4147 147 4506 122 
L 4506 0 
z
" transform="scale(0.015625)"/>
      </defs>
      <use xlink:href="#STIXGeneral-Regular-418"/>
      <use xlink:href="#STIXGeneral-Regular-43c" transform="translate(72.299988 0)"/>
      <use xlink:href="#STIXGeneral-Regular-43c" transform="translate(133.999985 0)"/>
      <use xlink:href="#STIXGeneral-Regular-443" transform="translate(195.699982 0)"/>
      <use xlink:href="#STIXGeneral-Regular-43d" transform="translate(244.799973 0)"/>
      <use xlink:href="#STIXGeneral-Regular-43d" transform="translate(297.299957 0)"/>
      <use xlink:href="#STIXGeneral-Regular-44b" transform="translate(349.799942 0)"/>
      <use xlink:href="#STIXGeneral-Regular-435" transform="translate(416.799927 0)"/>
      <use xlink:href="#STIXGeneral-Regular-20" transform="translate(463.399918 0)"/>
      <use xlink:href="#STIXGeneral-Regular-43a" transform="translate(488.399902 0)"/>
      <use xlink:href="#STIXGeneral-Regular-43b" transform="translate(538.69989 0)"/>
      <use xlink:href="#STIXGeneral-Regular-435" transform="translate(588.599884 0)"/>
      <use xlink:href="#STIXGeneral-Regular-442" transform="translate(635.199875 0)"/>
      <use xlink:href="#STIXGeneral-Regular-43a" transform="translate(678.599869 0)"/>
      <use xlink:href="#STIXGeneral-Regular-438" transform="translate(728.899857 0)"/>
      <use xlink:href="#STIXGeneral-Regular-20" transform="translate(781.399841 0)"/>
      <use xlink:href="#STIXGeneral-Regular-28" transform="translate(806.399826 0)"/>
      <use xlink:href="#STIXGeneral-Regular-43c" transform="translate(839.699814 0)"/>
      <use xlink:href="#STIXGeneral-Regular-43e" transform="translate(901.399811 0)"/>
      <use xlink:href="#STIXGeneral-Regular-434" transform="translate(952.599808 0)"/>
      <use xlink:href="#STIXGeneral-Regular-435" transform="translate(998.799805 0)"/>
      <use xlink:href="#STIXGeneral-Regular-43b" transform="translate(1045.399796 0)"/>
      <use xlink:href="#STIXGeneral-Regular-44c" transform="translate(1095.299789 0)"/>
      <use xlink:href="#STIXGeneral-Regular-29" transform="translate(1140.999786 0)"/>
     </g>
    </g>
    <g id="line2d_116">
     <path d="M 390.910625 406.081875 
L 410.910625 406.081875 
L 430.910625 406.081875 
" style="fill: none; stroke-dasharray: 5.55,2.4; stroke-dashoffset: 0; stroke: #0000ff; stroke-opacity: 0.3; stroke-width: 1.5"/>
    </g>
    <g id="text_17">
     <!-- Инъекция -->
     <g transform="translate(446.910625 413.081875) scale(0.2 -0.2)">
      <defs>
       <path id="STIXGeneral-Regular-44a" d="M 1606 1613 
L 2029 1613 
Q 2573 1613 2909 1411 
Q 3245 1210 3245 794 
Q 3245 422 2944 211 
Q 2643 0 2157 0 
L 672 0 
L 672 96 
Q 934 115 1001 176 
Q 1069 237 1069 506 
L 1069 2502 
Q 1069 2701 787 2701 
Q 512 2701 377 2563 
Q 243 2426 160 2054 
L 51 2054 
L 102 2880 
L 2003 2880 
L 2003 2784 
Q 1747 2758 1676 2688 
Q 1606 2618 1606 2413 
L 1606 1613 
z
M 1606 1434 
L 1606 378 
Q 1606 256 1644 217 
Q 1683 179 1824 179 
Q 2234 179 2448 313 
Q 2662 448 2662 813 
Q 2662 1171 2457 1302 
Q 2253 1434 1894 1434 
L 1606 1434 
z
" transform="scale(0.015625)"/>
      </defs>
      <use xlink:href="#STIXGeneral-Regular-418"/>
      <use xlink:href="#STIXGeneral-Regular-43d" transform="translate(72.299988 0)"/>
      <use xlink:href="#STIXGeneral-Regular-44a" transform="translate(124.799973 0)"/>
      <use xlink:href="#STIXGeneral-Regular-435" transform="translate(178.699966 0)"/>
      <use xlink:href="#STIXGeneral-Regular-43a" transform="translate(225.299957 0)"/>
      <use xlink:href="#STIXGeneral-Regular-446" transform="translate(275.599945 0)"/>
      <use xlink:href="#STIXGeneral-Regular-438" transform="translate(328.09993 0)"/>
      <use xlink:href="#STIXGeneral-Regular-44f" transform="translate(380.599915 0)"/>
     </g>
    </g>
   </g>
  </g>
 </g>
 <defs>
  <clipPath id="pade43ba6c7">
   <rect x="70" y="7.2" width="643.51375" height="428.2225"/>
  </clipPath>
 </defs>
</svg>
